<mxfile host="Electron" agent="Mozilla/5.0 (Windows NT 10.0; Win64; x64) AppleWebKit/537.36 (KHTML, like Gecko) draw.io/26.0.4 Chrome/128.0.6613.186 Electron/32.2.5 Safari/537.36" version="26.0.4">
  <diagram name="Page-1" id="s5rMhTjdRxjyFMEfEs4i">
    <mxGraphModel dx="2887" dy="825" grid="1" gridSize="10" guides="1" tooltips="1" connect="1" arrows="1" fold="1" page="1" pageScale="1" pageWidth="850" pageHeight="1100" math="0" shadow="0">
      <root>
        <mxCell id="0" />
        <mxCell id="1" parent="0" />
        <object label="IGameSettingStateModel" test="" id="faZzzhadOM_wpmxJfnYH-6">
          <mxCell style="swimlane;fontStyle=0;childLayout=stackLayout;horizontal=1;startSize=30;horizontalStack=0;resizeParent=1;resizeParentMax=0;resizeLast=0;collapsible=1;marginBottom=0;whiteSpace=wrap;html=1;" vertex="1" parent="1">
            <mxGeometry x="41" y="160" width="250" height="150" as="geometry" />
          </mxCell>
        </object>
        <mxCell id="faZzzhadOM_wpmxJfnYH-7" value="numberOfOptions : number" style="text;strokeColor=none;fillColor=none;align=left;verticalAlign=middle;spacingLeft=4;spacingRight=4;overflow=hidden;points=[[0,0.5],[1,0.5]];portConstraint=eastwest;rotatable=0;whiteSpace=wrap;html=1;" vertex="1" parent="faZzzhadOM_wpmxJfnYH-6">
          <mxGeometry y="30" width="250" height="30" as="geometry" />
        </mxCell>
        <mxCell id="faZzzhadOM_wpmxJfnYH-8" value="pairingMode : IPairingMode" style="text;strokeColor=none;fillColor=none;align=left;verticalAlign=middle;spacingLeft=4;spacingRight=4;overflow=hidden;points=[[0,0.5],[1,0.5]];portConstraint=eastwest;rotatable=0;whiteSpace=wrap;html=1;" vertex="1" parent="faZzzhadOM_wpmxJfnYH-6">
          <mxGeometry y="60" width="250" height="30" as="geometry" />
        </mxCell>
        <object label="category: Category" selectedCategory="Category" id="faZzzhadOM_wpmxJfnYH-9">
          <mxCell style="text;strokeColor=none;fillColor=none;align=left;verticalAlign=middle;spacingLeft=4;spacingRight=4;overflow=hidden;points=[[0,0.5],[1,0.5]];portConstraint=eastwest;rotatable=0;whiteSpace=wrap;html=1;" vertex="1" parent="faZzzhadOM_wpmxJfnYH-6">
            <mxGeometry y="90" width="250" height="30" as="geometry" />
          </mxCell>
        </object>
        <object label="numberOfRounds: number" selectedCategory="Category" id="faZzzhadOM_wpmxJfnYH-27">
          <mxCell style="text;strokeColor=none;fillColor=none;align=left;verticalAlign=middle;spacingLeft=4;spacingRight=4;overflow=hidden;points=[[0,0.5],[1,0.5]];portConstraint=eastwest;rotatable=0;whiteSpace=wrap;html=1;" vertex="1" parent="faZzzhadOM_wpmxJfnYH-6">
            <mxGeometry y="120" width="250" height="30" as="geometry" />
          </mxCell>
        </object>
        <mxCell id="faZzzhadOM_wpmxJfnYH-14" value="" style="endArrow=classic;html=1;rounded=0;exitX=0;exitY=0.5;exitDx=0;exitDy=0;" edge="1" parent="1" source="faZzzhadOM_wpmxJfnYH-8" target="faZzzhadOM_wpmxJfnYH-15">
          <mxGeometry width="50" height="50" relative="1" as="geometry">
            <mxPoint x="-140" y="220" as="sourcePoint" />
            <mxPoint x="50" y="240" as="targetPoint" />
          </mxGeometry>
        </mxCell>
        <mxCell id="faZzzhadOM_wpmxJfnYH-15" value="Finns i games/src/lib/api/" style="text;html=1;align=center;verticalAlign=middle;whiteSpace=wrap;rounded=0;" vertex="1" parent="1">
          <mxGeometry x="-230" y="120" width="100" height="30" as="geometry" />
        </mxCell>
        <mxCell id="faZzzhadOM_wpmxJfnYH-16" value="Hur många alternativ ska visas till höger? Initalt kan detta alltid vara 3" style="text;html=1;align=center;verticalAlign=middle;whiteSpace=wrap;rounded=0;" vertex="1" parent="1">
          <mxGeometry x="240" y="50" width="180" height="30" as="geometry" />
        </mxCell>
        <mxCell id="faZzzhadOM_wpmxJfnYH-17" value="" style="endArrow=classic;html=1;rounded=0;exitX=0.5;exitY=1;exitDx=0;exitDy=0;" edge="1" parent="1" source="faZzzhadOM_wpmxJfnYH-16" target="faZzzhadOM_wpmxJfnYH-7">
          <mxGeometry width="50" height="50" relative="1" as="geometry">
            <mxPoint x="150" y="120" as="sourcePoint" />
            <mxPoint x="200" y="70" as="targetPoint" />
          </mxGeometry>
        </mxCell>
        <mxCell id="faZzzhadOM_wpmxJfnYH-18" value="Category(enum)" style="swimlane;fontStyle=0;childLayout=stackLayout;horizontal=1;startSize=30;horizontalStack=0;resizeParent=1;resizeParentMax=0;resizeLast=0;collapsible=1;marginBottom=0;whiteSpace=wrap;html=1;" vertex="1" parent="1">
          <mxGeometry x="-270" y="390" width="260" height="90" as="geometry" />
        </mxCell>
        <mxCell id="faZzzhadOM_wpmxJfnYH-19" value="ALL" style="text;strokeColor=none;fillColor=none;align=left;verticalAlign=middle;spacingLeft=4;spacingRight=4;overflow=hidden;points=[[0,0.5],[1,0.5]];portConstraint=eastwest;rotatable=0;whiteSpace=wrap;html=1;" vertex="1" parent="faZzzhadOM_wpmxJfnYH-18">
          <mxGeometry y="30" width="260" height="30" as="geometry" />
        </mxCell>
        <mxCell id="faZzzhadOM_wpmxJfnYH-20" value="CATEGORIES..." style="text;strokeColor=none;fillColor=none;align=left;verticalAlign=middle;spacingLeft=4;spacingRight=4;overflow=hidden;points=[[0,0.5],[1,0.5]];portConstraint=eastwest;rotatable=0;whiteSpace=wrap;html=1;" vertex="1" parent="faZzzhadOM_wpmxJfnYH-18">
          <mxGeometry y="60" width="260" height="30" as="geometry" />
        </mxCell>
        <mxCell id="faZzzhadOM_wpmxJfnYH-22" value="lar-dig-tecken/category/api" style="text;html=1;align=center;verticalAlign=middle;whiteSpace=wrap;rounded=0;" vertex="1" parent="1">
          <mxGeometry x="-410" y="420" width="130" height="30" as="geometry" />
        </mxCell>
        <mxCell id="faZzzhadOM_wpmxJfnYH-23" style="edgeStyle=orthogonalEdgeStyle;rounded=0;orthogonalLoop=1;jettySize=auto;html=1;exitX=1;exitY=0.25;exitDx=0;exitDy=0;entryX=1;entryY=0.5;entryDx=0;entryDy=0;" edge="1" parent="1" source="faZzzhadOM_wpmxJfnYH-22" target="faZzzhadOM_wpmxJfnYH-22">
          <mxGeometry relative="1" as="geometry" />
        </mxCell>
        <mxCell id="faZzzhadOM_wpmxJfnYH-25" value="Vilken kategori ska användas? Eller är kategorin ALLA?" style="text;html=1;align=center;verticalAlign=middle;whiteSpace=wrap;rounded=0;" vertex="1" parent="1">
          <mxGeometry x="-290" y="280" width="180" height="30" as="geometry" />
        </mxCell>
        <mxCell id="faZzzhadOM_wpmxJfnYH-26" value="" style="endArrow=classic;html=1;rounded=0;entryX=1;entryY=0.5;entryDx=0;entryDy=0;exitX=0;exitY=0.5;exitDx=0;exitDy=0;" edge="1" parent="1" source="faZzzhadOM_wpmxJfnYH-9" target="faZzzhadOM_wpmxJfnYH-25">
          <mxGeometry width="50" height="50" relative="1" as="geometry">
            <mxPoint x="-40" y="420" as="sourcePoint" />
            <mxPoint x="10" y="370" as="targetPoint" />
          </mxGeometry>
        </mxCell>
        <mxCell id="faZzzhadOM_wpmxJfnYH-28" value="Inititalt default värde 5" style="text;html=1;align=center;verticalAlign=middle;whiteSpace=wrap;rounded=0;" vertex="1" parent="1">
          <mxGeometry x="30" y="410" width="180" height="30" as="geometry" />
        </mxCell>
        <mxCell id="faZzzhadOM_wpmxJfnYH-29" value="" style="endArrow=classic;html=1;rounded=0;entryX=0.5;entryY=0;entryDx=0;entryDy=0;" edge="1" parent="1" source="faZzzhadOM_wpmxJfnYH-27" target="faZzzhadOM_wpmxJfnYH-28">
          <mxGeometry width="50" height="50" relative="1" as="geometry">
            <mxPoint x="50" y="275" as="sourcePoint" />
            <mxPoint x="-20" y="345" as="targetPoint" />
          </mxGeometry>
        </mxCell>
        <mxCell id="faZzzhadOM_wpmxJfnYH-31" value="" style="endArrow=classic;html=1;rounded=0;entryX=0.518;entryY=0.002;entryDx=0;entryDy=0;entryPerimeter=0;exitX=0;exitY=0.5;exitDx=0;exitDy=0;" edge="1" parent="1" source="faZzzhadOM_wpmxJfnYH-9" target="faZzzhadOM_wpmxJfnYH-18">
          <mxGeometry width="50" height="50" relative="1" as="geometry">
            <mxPoint x="330" y="310" as="sourcePoint" />
            <mxPoint x="380" y="260" as="targetPoint" />
          </mxGeometry>
        </mxCell>
        <mxCell id="faZzzhadOM_wpmxJfnYH-33" value="UpdateFirstPairingMode" style="text;html=1;align=center;verticalAlign=middle;whiteSpace=wrap;rounded=0;fillColor=#fff2cc;strokeColor=#d6b656;" vertex="1" parent="1">
          <mxGeometry x="390" y="160" width="250" height="40" as="geometry" />
        </mxCell>
        <mxCell id="faZzzhadOM_wpmxJfnYH-34" value="UpdateSecond&lt;span style=&quot;background-color: transparent; color: light-dark(rgb(0, 0, 0), rgb(255, 255, 255));&quot;&gt;PairingMode&lt;/span&gt;" style="text;html=1;align=center;verticalAlign=middle;whiteSpace=wrap;rounded=0;fillColor=#fff2cc;strokeColor=#d6b656;" vertex="1" parent="1">
          <mxGeometry x="390" y="225" width="250" height="40" as="geometry" />
        </mxCell>
        <mxCell id="faZzzhadOM_wpmxJfnYH-35" value="UpdateCategory" style="text;html=1;align=center;verticalAlign=middle;whiteSpace=wrap;rounded=0;fillColor=#fff2cc;strokeColor=#d6b656;" vertex="1" parent="1">
          <mxGeometry x="390" y="295" width="250" height="40" as="geometry" />
        </mxCell>
        <mxCell id="faZzzhadOM_wpmxJfnYH-36" value="Actions" style="text;html=1;align=center;verticalAlign=middle;whiteSpace=wrap;rounded=0;fontStyle=1;fontSize=15;" vertex="1" parent="1">
          <mxGeometry x="500" y="100" width="60" height="30" as="geometry" />
        </mxCell>
        <mxCell id="faZzzhadOM_wpmxJfnYH-37" value="Queries" style="text;html=1;align=center;verticalAlign=middle;whiteSpace=wrap;rounded=0;fontStyle=1;fontSize=15;" vertex="1" parent="1">
          <mxGeometry x="485" y="510" width="60" height="30" as="geometry" />
        </mxCell>
        <mxCell id="faZzzhadOM_wpmxJfnYH-38" value="pairingModeFirstCard$" style="text;html=1;align=center;verticalAlign=middle;whiteSpace=wrap;rounded=0;fillColor=#d5e8d4;strokeColor=#82b366;" vertex="1" parent="1">
          <mxGeometry x="390" y="560" width="250" height="40" as="geometry" />
        </mxCell>
        <mxCell id="faZzzhadOM_wpmxJfnYH-39" value="pairingModeSecondCard$" style="text;html=1;align=center;verticalAlign=middle;whiteSpace=wrap;rounded=0;fillColor=#d5e8d4;strokeColor=#82b366;" vertex="1" parent="1">
          <mxGeometry x="390" y="630" width="250" height="40" as="geometry" />
        </mxCell>
        <mxCell id="faZzzhadOM_wpmxJfnYH-40" value="category$" style="text;html=1;align=center;verticalAlign=middle;whiteSpace=wrap;rounded=0;fillColor=#d5e8d4;strokeColor=#82b366;" vertex="1" parent="1">
          <mxGeometry x="390" y="700" width="250" height="40" as="geometry" />
        </mxCell>
        <mxCell id="faZzzhadOM_wpmxJfnYH-41" value="numberOfRounds$" style="text;html=1;align=center;verticalAlign=middle;whiteSpace=wrap;rounded=0;fillColor=#d5e8d4;strokeColor=#82b366;" vertex="1" parent="1">
          <mxGeometry x="390" y="760" width="250" height="40" as="geometry" />
        </mxCell>
        <mxCell id="faZzzhadOM_wpmxJfnYH-42" value="defaults: {&#xa;    numberOfRounds : 5,&#xa;    numberOfOptions: 3,&#xa;....&#xa;  }," style="text;whiteSpace=wrap;" vertex="1" parent="1">
          <mxGeometry x="50" y="500" width="160" height="80" as="geometry" />
        </mxCell>
        <mxCell id="faZzzhadOM_wpmxJfnYH-43" value="" style="endArrow=classic;html=1;rounded=0;entryX=0.5;entryY=0;entryDx=0;entryDy=0;exitX=0.5;exitY=1;exitDx=0;exitDy=0;" edge="1" parent="1" source="faZzzhadOM_wpmxJfnYH-28" target="faZzzhadOM_wpmxJfnYH-42">
          <mxGeometry width="50" height="50" relative="1" as="geometry">
            <mxPoint x="-220" y="400" as="sourcePoint" />
            <mxPoint x="-170" y="350" as="targetPoint" />
          </mxGeometry>
        </mxCell>
        <mxCell id="faZzzhadOM_wpmxJfnYH-44" value="GameSettingsState default" style="text;html=1;align=center;verticalAlign=middle;whiteSpace=wrap;rounded=0;" vertex="1" parent="1">
          <mxGeometry x="55" y="590" width="130" height="30" as="geometry" />
        </mxCell>
        <mxCell id="faZzzhadOM_wpmxJfnYH-45" value="numberOfOptions$" style="text;html=1;align=center;verticalAlign=middle;whiteSpace=wrap;rounded=0;fillColor=#d5e8d4;strokeColor=#82b366;" vertex="1" parent="1">
          <mxGeometry x="390" y="810" width="250" height="40" as="geometry" />
        </mxCell>
        <mxCell id="faZzzhadOM_wpmxJfnYH-47" value="UseAllCategories" style="text;html=1;align=center;verticalAlign=middle;whiteSpace=wrap;rounded=0;fillColor=#fff2cc;strokeColor=#d6b656;" vertex="1" parent="1">
          <mxGeometry x="390" y="380" width="250" height="40" as="geometry" />
        </mxCell>
        <mxCell id="faZzzhadOM_wpmxJfnYH-48" value="Sätter category till ALL" style="text;html=1;align=center;verticalAlign=middle;whiteSpace=wrap;rounded=0;" vertex="1" parent="1">
          <mxGeometry x="650" y="385" width="180" height="30" as="geometry" />
        </mxCell>
      </root>
    </mxGraphModel>
  </diagram>
</mxfile>
